<svg width="11" height="12" viewBox="0 0 11 12" fill="none" xmlns="http://www.w3.org/2000/svg">
<g clip-path="url(#clip0)">
<path d="M10.5609 3.85888C9.98099 2.5068 8.99548 1.52347 7.63211 0.941995C6.95069 0.651376 6.23678 0.50293 5.49096 0.50293C4.74526 0.50293 4.03662 0.649974 3.35595 0.941995C2.00387 1.52192 1.014 2.50462 0.433026 3.85888C0.141904 4.53736 0 5.24817 0 5.99387C0 6.73971 0.141904 7.45642 0.433026 8.13504C1.014 9.4893 2.004 10.4779 3.35595 11.058C4.03675 11.35 4.74524 11.4969 5.49096 11.4969C6.23668 11.4969 6.95069 11.3484 7.63201 11.058C8.99538 10.4765 9.98088 9.487 10.561 8.13504C10.853 7.45424 11 6.73971 11 5.99387C11 5.24817 10.8531 4.53966 10.5609 3.85888ZM9.68295 8.42374C9.2512 9.16417 8.65971 9.75157 7.91477 10.1859C7.17434 10.6176 6.36305 10.8354 5.49109 10.8354C4.83558 10.8354 4.21009 10.7091 3.61461 10.4504C3.01916 10.1919 2.50503 9.85203 2.07496 9.42208C1.64488 8.992 1.30257 8.47286 1.0466 7.87638C0.791389 7.28207 0.667711 6.64952 0.667711 5.99389C0.667711 5.1218 0.881977 4.31463 1.3113 3.57624C1.74215 2.83516 2.33376 2.24713 3.07344 1.81409C3.81299 1.38106 4.61901 1.16448 5.49096 1.16448C6.36305 1.16448 7.17419 1.38234 7.91464 1.81409C8.65959 2.24841 9.2498 2.83642 9.68282 3.57622C10.1158 4.3159 10.3323 5.1218 10.3323 5.99387C10.3323 6.86598 10.1173 7.67865 9.68295 8.42374Z" fill="#01B4E1"/>
<path d="M5.8398 5.94584V2.83045C5.8398 2.64402 5.67737 2.49365 5.49093 2.49365C5.31657 2.49365 5.16016 2.64402 5.16016 2.83045V5.99394C5.16016 5.99998 5.17222 6.0241 5.17222 6.04207C5.16016 6.15035 5.19032 6.24056 5.26243 6.3128L7.06077 8.11101C7.1811 8.23135 7.40358 8.23135 7.52383 8.11101C7.66212 7.9727 7.65302 7.77202 7.52383 7.64191L5.8398 5.94584Z" fill="#01B4E1"/>
</g>
<defs>
<clipPath id="clip0">
<rect width="11" height="11" fill="white" transform="translate(0 0.5)"/>
</clipPath>
</defs>
</svg>
