<svg width="24" height="24" viewBox="0 0 24 24" fill="none" xmlns="http://www.w3.org/2000/svg">
<path d="M23.7885 22.7761L17.9562 16.9437C19.5207 15.145 20.4679 12.7982 20.4679 10.2333C20.4679 4.58714 15.8755 0 10.2347 0C4.58854 0 0.00140381 4.59246 0.00140381 10.2333C0.00140381 15.8741 4.59386 20.4665 10.2347 20.4665C12.7996 20.4665 15.1464 19.5193 16.9451 17.9548L22.7775 23.7871C22.9158 23.9255 23.1021 24 23.283 24C23.4639 24 23.6502 23.9308 23.7885 23.7871C24.0653 23.5104 24.0653 23.0528 23.7885 22.7761ZM1.43289 10.2333C1.43289 5.38004 5.38145 1.43681 10.2293 1.43681C15.0826 1.43681 19.0258 5.38537 19.0258 10.2333C19.0258 15.0812 15.0826 19.035 10.2293 19.035C5.38145 19.035 1.43289 15.0865 1.43289 10.2333Z" fill="black"/>
</svg>
