<svg width="11" height="12" viewBox="0 0 11 12" fill="none" xmlns="http://www.w3.org/2000/svg">
<g clip-path="url(#clip0)">
<path d="M10.3967 3.16289C9.48465 1.384 7.63279 0.162781 5.5 0.162781C3.36651 0.162781 1.51441 1.38447 0.602613 3.16464C0.598994 3.17176 0.594674 3.17818 0.591871 3.18566C0.21426 3.93072 0 4.772 0 5.66278C0 6.5538 0.21426 7.39508 0.591871 8.13991C0.594674 8.14738 0.598994 8.1538 0.602613 8.16092C1.51418 9.94109 3.36651 11.1628 5.5 11.1628C7.63279 11.1628 9.48465 9.94179 10.3967 8.16267C10.4008 8.15474 10.4056 8.14761 10.4086 8.13921C10.786 7.39437 11 6.55333 11 5.66278C11 4.77223 10.786 3.93119 10.4086 3.18636C10.4053 3.17795 10.4008 3.17083 10.3967 3.16289ZM10.0303 7.81495H7.92832C8.04508 7.22577 8.11444 6.58147 8.12752 5.90191H10.5096C10.4773 6.58416 10.3093 7.23009 10.0303 7.81495ZM5.5 10.6845C4.74361 10.6845 4.06522 9.7148 3.68048 8.29322H7.31952C6.93478 9.7148 6.25639 10.6845 5.5 10.6845ZM3.56617 7.81495C3.44252 7.22694 3.36768 6.5803 3.35331 5.90191H7.64692C7.63232 6.5803 7.55748 7.22694 7.43406 7.81495H3.56617ZM0.490404 5.90191H2.87248C2.8858 6.58147 2.95492 7.22577 3.07168 7.81495H0.969716C0.690653 7.23009 0.522748 6.58416 0.490404 5.90191ZM0.969716 3.51061H3.07168C2.95492 4.09979 2.88556 4.74409 2.87248 5.42365H0.490404C0.522748 4.7414 0.690653 4.09547 0.969716 3.51061ZM5.5 0.641042C6.25639 0.641042 6.93478 1.61076 7.31952 3.03235H3.68048C4.06522 1.61076 4.74361 0.641042 5.5 0.641042ZM7.43383 3.51061C7.55748 4.09839 7.63232 4.74526 7.64669 5.42365H3.35308C3.36768 4.74526 3.44252 4.09839 3.56594 3.51061H7.43383ZM8.12752 5.42365C8.1142 4.74409 8.04508 4.09979 7.92832 3.51061H10.0303C10.3093 4.09547 10.4773 4.7414 10.5096 5.42365H8.12752ZM9.76944 3.03235H7.82008C7.57803 2.08353 7.20696 1.30963 6.75228 0.805561C8.02231 1.13343 9.09653 1.94412 9.76944 3.03235ZM4.24748 0.805561C3.79304 1.30963 3.42197 2.08353 3.17969 3.03235H1.23033C1.90347 1.94412 2.97769 1.13343 4.24748 0.805561ZM1.23056 8.29322H3.17969C3.42174 9.24203 3.79281 10.0159 4.24748 10.52C2.97769 10.1921 1.90347 9.38121 1.23056 8.29322ZM6.75252 10.52C7.20696 10.0159 7.57803 9.24203 7.82031 8.29322H9.76944C9.09653 9.38121 8.02231 10.1921 6.75252 10.52Z" fill="#01B4E1"/>
</g>
<defs>
<clipPath id="clip0">
<rect width="11" height="11" fill="white" transform="translate(0 0.162781)"/>
</clipPath>
</defs>
</svg>
