<svg width="29" height="18" viewBox="0 0 29 18" fill="none" xmlns="http://www.w3.org/2000/svg">
<path d="M1.85137 10.2013L24.2545 10.2013L18.9088 15.6345C18.4405 16.1102 18.4405 16.8819 18.9088 17.3575C19.3771 17.8334 20.1364 17.8334 20.604 17.3575L27.9963 9.84442C28.4646 9.36874 28.4646 8.59703 27.9963 8.12149L20.604 0.608089C20.3699 0.370039 20.0631 0.25119 19.7564 0.25119C19.4497 0.25119 19.1429 0.370039 18.9088 0.608089C18.4405 1.08377 18.4405 1.85541 18.9088 2.33095L24.2545 7.76452L1.85137 7.76452C1.18933 7.76452 0.652466 8.31008 0.652466 8.98292C0.652466 9.65577 1.18926 10.2013 1.85137 10.2013Z" fill="white"/>
</svg>
