<svg width="16" height="11" viewBox="0 0 16 11" fill="none" xmlns="http://www.w3.org/2000/svg">
<path d="M1.15789 6.19535L13.2917 6.19535L10.3964 9.1241C10.1428 9.38051 10.1428 9.79645 10.3964 10.0528C10.6501 10.3094 11.0613 10.3094 11.3145 10.0528L15.3183 6.00301C15.572 5.7466 15.572 5.33062 15.3183 5.07429L11.3146 1.02429C11.1878 0.895974 11.0216 0.83191 10.8555 0.83191C10.6894 0.83191 10.5232 0.895974 10.3964 1.02429C10.1428 1.2807 10.1428 1.69664 10.3964 1.95297L13.2917 4.88187L1.15789 4.88187C0.79932 4.88187 0.508547 5.17594 0.508547 5.53863C0.508547 5.90132 0.799281 6.19535 1.15789 6.19535Z" fill="#21BDE4"/>
</svg>
