<svg width="18" height="30" viewBox="0 0 18 30" fill="none" xmlns="http://www.w3.org/2000/svg">
<path d="M7.58529 2.1378L7.58529 25.3516L2.36654 19.8125C1.90965 19.3272 1.16848 19.3272 0.711648 19.8125C0.254483 20.2978 0.254483 21.0845 0.711649 21.569L7.92803 29.2288C8.38493 29.7141 9.12617 29.7141 9.58293 29.2288L16.7996 21.569C17.0283 21.3265 17.1425 21.0086 17.1425 20.6908C17.1425 20.3729 17.0283 20.055 16.7996 19.8125C16.3428 19.3272 15.6016 19.3272 15.1448 19.8125L9.9258 25.3516L9.9258 2.1378C9.9258 1.4518 9.40179 0.895507 8.75551 0.895507C8.10923 0.895507 7.58529 1.45173 7.58529 2.1378Z" fill="black"/>
</svg>
