<svg width="28" height="18" viewBox="0 0 28 18" fill="none" xmlns="http://www.w3.org/2000/svg">
<path d="M26.6837 7.79875L4.28051 7.79875L9.62623 2.36545C10.0946 1.88977 10.0946 1.11813 9.62623 0.642523C9.15791 0.166563 8.39866 0.166563 7.93103 0.642523L0.538739 8.15558C0.0704203 8.63126 0.0704203 9.40297 0.538739 9.87851L7.93103 17.3919C8.16512 17.63 8.47191 17.7488 8.77863 17.7488C9.08535 17.7488 9.39214 17.63 9.62623 17.3919C10.0946 16.9162 10.0946 16.1446 9.62623 15.6691L4.28051 10.2355L26.6837 10.2355C27.3457 10.2355 27.8826 9.68992 27.8826 9.01708C27.8826 8.34423 27.3458 7.79875 26.6837 7.79875Z" fill="white"/>
</svg>
